<svg width="892" height="305" viewBox="0 0 892 305" fill="none" xmlns="http://www.w3.org/2000/svg">
<path d="M14 247.866V148.666H38.8V159.466H42.4C44.1333 156.133 47 153.266 51 150.866C55 148.333 60.2667 147.066 66.8 147.066C73.8667 147.066 79.5333 148.466 83.8 151.266C88.0667 153.933 91.3333 157.466 93.6 161.866H97.2C99.4667 157.599 102.667 154.066 106.8 151.266C110.933 148.466 116.8 147.066 124.4 147.066C130.533 147.066 136.067 148.399 141 151.066C146.067 153.599 150.067 157.533 153 162.866C156.067 168.066 157.6 174.666 157.6 182.666V247.866H132.4V184.466C132.4 178.999 131 174.933 128.2 172.266C125.4 169.466 121.467 168.066 116.4 168.066C110.667 168.066 106.2 169.933 103 173.666C99.9333 177.266 98.4 182.466 98.4 189.266V247.866H73.2V184.466C73.2 178.999 71.8 174.933 69 172.266C66.2 169.466 62.2667 168.066 57.2 168.066C51.4667 168.066 47 169.933 43.8 173.666C40.7333 177.266 39.2 182.466 39.2 189.266V247.866H14ZM183.903 247.866V107.866H210.303V247.866H183.903ZM237.438 247.866V148.666H262.238V159.866H265.838C267.304 155.866 269.704 152.933 273.038 151.066C276.504 149.199 280.504 148.266 285.038 148.266H297.038V170.666H284.638C278.238 170.666 272.971 172.399 268.838 175.866C264.704 179.199 262.638 184.399 262.638 191.466V247.866H237.438ZM327.534 287.866V265.866H381.534C385.268 265.866 387.134 263.866 387.134 259.866V234.866H383.534C382.468 237.133 380.801 239.399 378.534 241.666C376.268 243.933 373.201 245.799 369.334 247.266C365.468 248.733 360.534 249.466 354.534 249.466C346.801 249.466 340.001 247.733 334.134 244.266C328.401 240.666 323.934 235.733 320.734 229.466C317.534 223.199 315.934 215.999 315.934 207.866V148.666H341.134V205.866C341.134 213.333 342.934 218.933 346.534 222.666C350.268 226.399 355.534 228.266 362.334 228.266C370.068 228.266 376.068 225.733 380.334 220.666C384.601 215.466 386.734 208.266 386.734 199.066V148.666H411.934V265.466C411.934 272.266 409.934 277.666 405.934 281.666C401.934 285.799 396.601 287.866 389.934 287.866H327.534ZM487.177 250.666C477.31 250.666 468.443 248.666 460.577 244.666C452.71 240.666 446.51 234.866 441.977 227.266C437.443 219.666 435.177 210.533 435.177 199.866V196.666C435.177 185.999 437.443 176.866 441.977 169.266C446.51 161.666 452.71 155.866 460.577 151.866C468.443 147.866 477.31 145.866 487.177 145.866C497.043 145.866 505.91 147.866 513.777 151.866C521.643 155.866 527.843 161.666 532.377 169.266C536.91 176.866 539.177 185.999 539.177 196.666V199.866C539.177 210.533 536.91 219.666 532.377 227.266C527.843 234.866 521.643 240.666 513.777 244.666C505.91 248.666 497.043 250.666 487.177 250.666ZM487.177 228.266C494.91 228.266 501.31 225.799 506.377 220.866C511.443 215.799 513.977 208.599 513.977 199.266V197.266C513.977 187.933 511.443 180.799 506.377 175.866C501.443 170.799 495.043 168.266 487.177 168.266C479.443 168.266 473.043 170.799 467.977 175.866C462.91 180.799 460.377 187.933 460.377 197.266V199.266C460.377 208.599 462.91 215.799 467.977 220.866C473.043 225.799 479.443 228.266 487.177 228.266ZM562.438 247.866V107.866H587.638V185.266H591.238L624.038 148.666H656.838L611.038 196.666L658.438 247.866H626.038L591.238 208.466H587.638V247.866H562.438ZM713.128 249.466C705.395 249.466 698.595 247.733 692.728 244.266C686.995 240.666 682.528 235.733 679.328 229.466C676.128 223.199 674.528 215.999 674.528 207.866V148.666H699.728V205.866C699.728 213.333 701.528 218.933 705.128 222.666C708.861 226.399 714.128 228.266 720.928 228.266C728.661 228.266 734.661 225.733 738.928 220.666C743.195 215.466 745.328 208.266 745.328 199.066V148.666H770.528V247.866H745.728V234.866H742.128C740.528 238.199 737.528 241.466 733.128 244.666C728.728 247.866 722.061 249.466 713.128 249.466Z" fill="black"/>
<path d="M755.615 14.9861C763.878 20.3874 763.878 20.3874 771.482 27.9162C774.238 30.6436 776.994 33.371 779.834 36.1811C782.637 39.07 785.441 41.959 788.329 44.9355C791.218 47.7389 794.107 50.5424 797.083 53.4308C799.811 56.1867 802.538 58.9426 805.348 61.782C807.833 64.2915 810.317 66.8009 812.877 69.3864C820.084 80.4121 820.17 86.8213 818.278 99.766C812.877 108.029 812.877 108.029 805.348 115.633C802.621 118.389 799.893 121.145 797.083 123.985C794.194 126.788 791.306 129.592 788.329 132.48C785.526 135.369 782.722 138.258 779.834 141.234C777.078 143.962 774.322 146.689 771.482 149.499C767.718 153.226 767.718 153.226 763.878 157.028C752.852 164.235 746.443 164.321 733.499 162.429C725.235 157.028 725.235 157.028 717.631 149.499C714.875 146.772 712.119 144.044 709.28 141.234C706.476 138.345 703.673 135.456 700.785 132.48C697.896 129.676 695.007 126.873 692.03 123.985C689.303 121.229 686.575 118.473 683.765 115.633C681.281 113.124 678.796 110.615 676.236 108.029C669.029 97.0033 668.943 90.5941 670.835 77.6495C676.236 69.3864 676.236 69.3864 683.765 61.782C687.856 57.6482 687.856 57.6482 692.03 53.4308C694.919 50.6273 697.808 47.8239 700.785 44.9355C703.588 42.0465 706.391 39.1576 709.28 36.1811C712.036 33.4537 714.792 30.7262 717.631 27.9162C720.141 25.4317 722.65 22.9472 725.235 20.3874C736.261 13.1802 742.67 13.0941 755.615 14.9861ZM740.871 48.1608C740.871 50.5936 740.871 53.0265 740.871 55.533C743.304 55.533 745.736 55.533 748.243 55.533C748.243 53.1002 748.243 50.6674 748.243 48.1608C745.81 48.1608 743.377 48.1608 740.871 48.1608ZM704.01 85.0216C704.01 87.4545 704.01 89.8873 704.01 92.3938C706.443 92.3938 708.876 92.3938 711.382 92.3938C711.382 89.961 711.382 87.5282 711.382 85.0216C708.949 85.0216 706.516 85.0216 704.01 85.0216ZM740.871 85.0216C740.871 87.4545 740.871 89.8873 740.871 92.3938C743.304 92.3938 745.736 92.3938 748.243 92.3938C748.243 89.961 748.243 87.5282 748.243 85.0216C745.81 85.0216 743.377 85.0216 740.871 85.0216ZM777.732 85.0216C777.732 87.4545 777.732 89.8873 777.732 92.3938C780.164 92.3938 782.597 92.3938 785.104 92.3938C785.104 89.961 785.104 87.5282 785.104 85.0216C782.671 85.0216 780.238 85.0216 777.732 85.0216ZM740.871 121.882C740.871 124.315 740.871 126.748 740.871 129.255C743.304 129.255 745.736 129.255 748.243 129.255C748.243 126.822 748.243 124.389 748.243 121.882C745.81 121.882 743.377 121.882 740.871 121.882Z" fill="black"/>
<path d="M825.694 105.698C831.441 105.782 837.187 105.973 842.929 106.217C853.04 106.521 863.152 106.825 873.57 107.138C873.57 143.63 873.57 180.123 873.57 217.721C837.077 217.721 800.585 217.721 762.987 217.721C762.987 162.429 762.987 162.429 770.662 148.679C773.983 145.69 777.304 142.701 780.726 139.622C784.019 136.528 787.312 133.435 790.705 130.248C795.231 126.107 795.231 126.107 799.848 121.882C801.407 119.103 802.965 116.323 804.571 113.459C812.32 105.728 815.01 106.085 825.694 105.698ZM814.592 158.743C814.592 161.176 814.592 163.609 814.592 166.115C817.025 166.115 819.458 166.115 821.964 166.115C821.964 163.683 821.964 161.25 821.964 158.743C819.532 158.743 817.099 158.743 814.592 158.743Z" fill="black"/>
</svg>
